<svg xmlns="http://www.w3.org/2000/svg" viewBox="0 0 74.71 71.5"><g style="isolation:isolate"><g style="isolation:isolate"><path d="M8.3,66.9H2v-9H9.9C14.3,43.4,26.8,34,43.4,34s29.31,9.4,33.31,24.6H57.9c-2.9-5.8-8.2-8.8-14.7-8.8a16.4,16.4,0,0,0-14.7,8.1H45.2v9H25.7a27.15,27.15,0,0,0-.1,2.9,24.37,24.37,0,0,0,.1,2.7H45.2v8.9H28.3a16.36,16.36,0,0,0,14.9,8.5A15.7,15.7,0,0,0,57.9,81H76.71c-4,15.2-16.61,24.5-33.31,24.5S14.1,96,9.8,81.4H2V72.5H8.3a24.37,24.37,0,0,1-.1-2.7A27.15,27.15,0,0,1,8.3,66.9Z" transform="translate(-2 -34)" style="fill:#d9c552"/></g></g></svg>